<svg width="400" height="400" viewBox="0 0 400 400" fill="none" xmlns="http://www.w3.org/2000/svg">
<g filter="url(#filter0_d_252_76)">
<path d="M95.8477 80.3383L118.915 77.043C118.915 77.043 122.21 68.7715 132.096 59.7427C141.982 50.714 169.164 28.8738 192.235 38.3234C203.83 43.0729 216.126 59.7427 216.126 59.7427C216.126 59.7427 230.341 56.4245 238.369 59.7427C248.076 63.7553 255.669 80.3383 255.669 80.3383C255.669 80.3383 271.351 82.0376 277.912 88.5765C283.213 93.8588 286.15 105.877 286.15 105.877C286.15 105.877 304.275 112.481 311.689 121.529C324.575 137.256 315.808 173.43 315.808 173.43L235.073 351.375L219.421 364.557L99.143 299.475L95.8477 273.112L116.443 234.393C116.443 234.393 80.0522 177.576 81.0189 137.182C81.2748 126.49 81.8102 120.393 84.3142 109.996C87.2238 97.9143 95.8477 80.3383 95.8477 80.3383Z" fill="white"/>
</g>
<g filter="url(#filter1_d_252_76)">
<path d="M224.364 97.7087C223.54 109.242 221.892 111.714 212.83 113.361C203.275 113.361 198.825 107.263 198.825 97.7087C198.825 88.154 202.452 81.2324 212.006 81.2324C221.561 81.2324 224.364 88.154 224.364 97.7087Z" fill="#D43D5D"/>
</g>
<g filter="url(#filter2_d_252_76)">
<ellipse cx="253.198" cy="121.526" rx="12.3573" ry="14.8288" fill="#D43D5D"/>
</g>
<g filter="url(#filter3_d_252_76)">
<ellipse cx="288.622" cy="150.359" rx="11.5335" ry="14.005" fill="#D43D5D"/>
</g>
<g filter="url(#filter4_d_252_76)">
<path d="M234.249 155.302C234.249 163.947 229.172 169.307 221.892 169.307C214.612 169.307 207.887 162.299 207.887 153.655C207.887 145.01 213.789 138.002 221.068 138.002C228.348 138.002 234.249 146.658 234.249 155.302Z" fill="#D43D5D"/>
</g>
<g filter="url(#filter5_d_252_76)">
<ellipse cx="263.083" cy="182.489" rx="12.3573" ry="14.8288" fill="#D43D5D"/>
</g>
<g filter="url(#filter6_d_252_76)">
<ellipse cx="230.954" cy="208.027" rx="13.1811" ry="15.6526" fill="#D43D5D"/>
</g>
<g filter="url(#filter7_d_252_76)">
<path d="M134.406 244.561C134.504 244.388 134.697 244.289 134.896 244.31C142.292 245.091 146.767 246.186 154.615 249.02C154.902 249.123 155.032 249.46 154.886 249.728L139.741 277.627C139.612 277.864 139.315 277.954 139.074 277.834C130.791 273.697 126.461 272.024 120.416 270.774C120.082 270.706 119.91 270.332 120.077 270.036L134.406 244.561Z" fill="#D43D5D"/>
</g>
<g filter="url(#filter8_d_252_76)">
<path d="M169.709 256.274C169.875 256 170.212 255.876 170.518 255.97C194.503 263.344 206.587 270.638 225.603 287.573C225.841 287.785 225.909 288.136 225.763 288.419L212.362 314.433C212.172 314.802 211.696 314.92 211.349 314.693C186.345 298.319 173.482 291.113 154.282 283.305C153.882 283.143 153.718 282.66 153.942 282.291L169.709 256.274Z" fill="#D43D5D"/>
</g>
<g filter="url(#filter9_d_252_76)">
<path d="M234.836 295.035C234.963 294.765 235.297 294.665 235.549 294.825C238.065 296.416 239.441 297.683 241.457 300.051C241.584 300.199 241.611 300.408 241.528 300.585L229.635 325.958C229.481 326.286 229.039 326.346 228.8 326.073C226.908 323.913 225.565 322.654 223.101 321.126C222.884 320.991 222.799 320.715 222.907 320.483L234.836 295.035Z" fill="#D43D5D"/>
</g>
<defs>
<filter id="filter0_d_252_76" x="81" y="36" width="241.721" height="338.557" filterUnits="userSpaceOnUse" color-interpolation-filters="sRGB">
<feFlood flood-opacity="0" result="BackgroundImageFix"/>
<feColorMatrix in="SourceAlpha" type="matrix" values="0 0 0 0 0 0 0 0 0 0 0 0 0 0 0 0 0 0 127 0" result="hardAlpha"/>
<feOffset dx="4" dy="10"/>
<feComposite in2="hardAlpha" operator="out"/>
<feColorMatrix type="matrix" values="0 0 0 0 0 0 0 0 0 0 0 0 0 0 0 0 0 0 1 0"/>
<feBlend mode="normal" in2="BackgroundImageFix" result="effect1_dropShadow_252_76"/>
<feBlend mode="normal" in="SourceGraphic" in2="effect1_dropShadow_252_76" result="shape"/>
</filter>
<filter id="filter1_d_252_76" x="198.825" y="81.2324" width="28.5386" height="36.1289" filterUnits="userSpaceOnUse" color-interpolation-filters="sRGB">
<feFlood flood-opacity="0" result="BackgroundImageFix"/>
<feColorMatrix in="SourceAlpha" type="matrix" values="0 0 0 0 0 0 0 0 0 0 0 0 0 0 0 0 0 0 127 0" result="hardAlpha"/>
<feOffset dx="3" dy="4"/>
<feComposite in2="hardAlpha" operator="out"/>
<feColorMatrix type="matrix" values="0 0 0 0 0 0 0 0 0 0 0 0 0 0 0 0 0 0 1 0"/>
<feBlend mode="normal" in2="BackgroundImageFix" result="effect1_dropShadow_252_76"/>
<feBlend mode="normal" in="SourceGraphic" in2="effect1_dropShadow_252_76" result="shape"/>
</filter>
<filter id="filter2_d_252_76" x="240.84" y="106.697" width="27.7148" height="33.6572" filterUnits="userSpaceOnUse" color-interpolation-filters="sRGB">
<feFlood flood-opacity="0" result="BackgroundImageFix"/>
<feColorMatrix in="SourceAlpha" type="matrix" values="0 0 0 0 0 0 0 0 0 0 0 0 0 0 0 0 0 0 127 0" result="hardAlpha"/>
<feOffset dx="3" dy="4"/>
<feComposite in2="hardAlpha" operator="out"/>
<feColorMatrix type="matrix" values="0 0 0 0 0 0 0 0 0 0 0 0 0 0 0 0 0 0 1 0"/>
<feBlend mode="normal" in2="BackgroundImageFix" result="effect1_dropShadow_252_76"/>
<feBlend mode="normal" in="SourceGraphic" in2="effect1_dropShadow_252_76" result="shape"/>
</filter>
<filter id="filter3_d_252_76" x="277.088" y="136.354" width="26.0669" height="32.0098" filterUnits="userSpaceOnUse" color-interpolation-filters="sRGB">
<feFlood flood-opacity="0" result="BackgroundImageFix"/>
<feColorMatrix in="SourceAlpha" type="matrix" values="0 0 0 0 0 0 0 0 0 0 0 0 0 0 0 0 0 0 127 0" result="hardAlpha"/>
<feOffset dx="3" dy="4"/>
<feComposite in2="hardAlpha" operator="out"/>
<feColorMatrix type="matrix" values="0 0 0 0 0 0 0 0 0 0 0 0 0 0 0 0 0 0 1 0"/>
<feBlend mode="normal" in2="BackgroundImageFix" result="effect1_dropShadow_252_76"/>
<feBlend mode="normal" in="SourceGraphic" in2="effect1_dropShadow_252_76" result="shape"/>
</filter>
<filter id="filter4_d_252_76" x="207.887" y="138.002" width="29.3623" height="35.3057" filterUnits="userSpaceOnUse" color-interpolation-filters="sRGB">
<feFlood flood-opacity="0" result="BackgroundImageFix"/>
<feColorMatrix in="SourceAlpha" type="matrix" values="0 0 0 0 0 0 0 0 0 0 0 0 0 0 0 0 0 0 127 0" result="hardAlpha"/>
<feOffset dx="3" dy="4"/>
<feComposite in2="hardAlpha" operator="out"/>
<feColorMatrix type="matrix" values="0 0 0 0 0 0 0 0 0 0 0 0 0 0 0 0 0 0 1 0"/>
<feBlend mode="normal" in2="BackgroundImageFix" result="effect1_dropShadow_252_76"/>
<feBlend mode="normal" in="SourceGraphic" in2="effect1_dropShadow_252_76" result="shape"/>
</filter>
<filter id="filter5_d_252_76" x="250.726" y="167.66" width="27.7148" height="33.6572" filterUnits="userSpaceOnUse" color-interpolation-filters="sRGB">
<feFlood flood-opacity="0" result="BackgroundImageFix"/>
<feColorMatrix in="SourceAlpha" type="matrix" values="0 0 0 0 0 0 0 0 0 0 0 0 0 0 0 0 0 0 127 0" result="hardAlpha"/>
<feOffset dx="3" dy="4"/>
<feComposite in2="hardAlpha" operator="out"/>
<feColorMatrix type="matrix" values="0 0 0 0 0 0 0 0 0 0 0 0 0 0 0 0 0 0 1 0"/>
<feBlend mode="normal" in2="BackgroundImageFix" result="effect1_dropShadow_252_76"/>
<feBlend mode="normal" in="SourceGraphic" in2="effect1_dropShadow_252_76" result="shape"/>
</filter>
<filter id="filter6_d_252_76" x="217.773" y="192.374" width="29.3623" height="35.3057" filterUnits="userSpaceOnUse" color-interpolation-filters="sRGB">
<feFlood flood-opacity="0" result="BackgroundImageFix"/>
<feColorMatrix in="SourceAlpha" type="matrix" values="0 0 0 0 0 0 0 0 0 0 0 0 0 0 0 0 0 0 127 0" result="hardAlpha"/>
<feOffset dx="3" dy="4"/>
<feComposite in2="hardAlpha" operator="out"/>
<feColorMatrix type="matrix" values="0 0 0 0 0 0 0 0 0 0 0 0 0 0 0 0 0 0 1 0"/>
<feBlend mode="normal" in2="BackgroundImageFix" result="effect1_dropShadow_252_76"/>
<feBlend mode="normal" in="SourceGraphic" in2="effect1_dropShadow_252_76" result="shape"/>
</filter>
<filter id="filter7_d_252_76" x="120.012" y="244.307" width="37.9341" height="37.5801" filterUnits="userSpaceOnUse" color-interpolation-filters="sRGB">
<feFlood flood-opacity="0" result="BackgroundImageFix"/>
<feColorMatrix in="SourceAlpha" type="matrix" values="0 0 0 0 0 0 0 0 0 0 0 0 0 0 0 0 0 0 127 0" result="hardAlpha"/>
<feOffset dx="3" dy="4"/>
<feComposite in2="hardAlpha" operator="out"/>
<feColorMatrix type="matrix" values="0 0 0 0 0 0 0 0 0 0 0 0 0 0 0 0 0 0 1 0"/>
<feBlend mode="normal" in2="BackgroundImageFix" result="effect1_dropShadow_252_76"/>
<feBlend mode="normal" in="SourceGraphic" in2="effect1_dropShadow_252_76" result="shape"/>
</filter>
<filter id="filter8_d_252_76" x="153.841" y="255.938" width="74.999" height="62.8701" filterUnits="userSpaceOnUse" color-interpolation-filters="sRGB">
<feFlood flood-opacity="0" result="BackgroundImageFix"/>
<feColorMatrix in="SourceAlpha" type="matrix" values="0 0 0 0 0 0 0 0 0 0 0 0 0 0 0 0 0 0 127 0" result="hardAlpha"/>
<feOffset dx="3" dy="4"/>
<feComposite in2="hardAlpha" operator="out"/>
<feColorMatrix type="matrix" values="0 0 0 0 0 0 0 0 0 0 0 0 0 0 0 0 0 0 1 0"/>
<feBlend mode="normal" in2="BackgroundImageFix" result="effect1_dropShadow_252_76"/>
<feBlend mode="normal" in="SourceGraphic" in2="effect1_dropShadow_252_76" result="shape"/>
</filter>
<filter id="filter9_d_252_76" x="222.86" y="294.748" width="21.7153" height="35.4971" filterUnits="userSpaceOnUse" color-interpolation-filters="sRGB">
<feFlood flood-opacity="0" result="BackgroundImageFix"/>
<feColorMatrix in="SourceAlpha" type="matrix" values="0 0 0 0 0 0 0 0 0 0 0 0 0 0 0 0 0 0 127 0" result="hardAlpha"/>
<feOffset dx="3" dy="4"/>
<feComposite in2="hardAlpha" operator="out"/>
<feColorMatrix type="matrix" values="0 0 0 0 0 0 0 0 0 0 0 0 0 0 0 0 0 0 1 0"/>
<feBlend mode="normal" in2="BackgroundImageFix" result="effect1_dropShadow_252_76"/>
<feBlend mode="normal" in="SourceGraphic" in2="effect1_dropShadow_252_76" result="shape"/>
</filter>
</defs>
</svg>
